<?xml version="1.0" encoding="utf-8"?>
<!-- Generator: Adobe Illustrator 22.0.0, SVG Export Plug-In . SVG Version: 6.00 Build 0)  -->
<svg version="1.1" id="Layer_1" xmlns="http://www.w3.org/2000/svg" xmlns:xlink="http://www.w3.org/1999/xlink" x="0px" y="0px"
	 viewBox="0 0 256 256" style="enable-background:new 0 0 256 256;" xml:space="preserve">
<style type="text/css">
	.st0{stroke:#FFFFFF;stroke-miterlimit:10;}
	.st1{fill:#FFFFFF;stroke:#FFFFFF;stroke-miterlimit:10;}
	.st2{enable-background:new    ;}
	.st3{fill:#FFFFFF;}
</style>
<g id="Layer_2_1_">
	<g id="Layer_5">
		<rect x="-47.9" y="-36.9" class="st0" width="352.5" height="328.5"/>
	</g>
	<path class="st1" d="M30.8,30.8L13.7,47v94c0,80.6,0.6,94.9,4.5,100.2l4.2,6.2h106.4h106.4l4.2-6.2c3.9-5.3,4.5-19.7,4.5-100.5v-94
		l-17.4-16l-17.1-16.3h-80.8h-81L30.8,30.8z M206.8,23.5c2.5,2.5,3.4,24.1,3.4,80v76.6l-6.2,1.4c-3.6,0.8-39.9,1.1-80.8,0.8
		l-74.4-0.8L48,103.2c-0.6-60.9,0.3-78.9,2.8-80.8C56.9,18.7,202.9,19.5,206.8,23.5z M31.1,210.1c-5.1,11.2-9.8,20.5-10.4,20.5
		c-0.8,0-1.4-39.9-1.4-88.4V54.1l9.3-10.4l9-10.4l1.4,78.3l1.4,78.3L31.1,210.1z M238.2,142.2c0,48.6-0.6,88.4-1.4,88.4
		c-0.6,0-5.3-9.3-10.4-20.5l-9.3-20.2l0.8-78.6l0.8-78.6l9.8,10.4l9.5,10.7v88.4H238.2z M219.4,212.1c5.6,12.9,10.4,24.7,10.4,26.7
		c0,2.2-26.9,3.1-101.1,3.1c-64,0-101.1-1.1-101.1-2.8c0-1.4,4.8-13.5,10.7-26.7l10.4-23.9h80l80,0.3L219.4,212.1z"/>
	<g class="st2">
		<path class="st3" d="M105.3,141.8V53.2h22.9c8.4,0,14.6,0.7,18.6,2.2c4,1.4,7.2,3.9,9.6,7.4c1.8,2.7,3.1,6.2,3.9,10.6
			c0.8,4.3,1.2,12.4,1.2,24.2c0,11.8-0.4,19.9-1.2,24.2c-0.8,4.3-2.1,7.8-3.9,10.6c-2.4,3.5-5.6,6-9.6,7.4c-4,1.4-10.2,2.2-18.6,2.2
			H105.3z M126.1,69.7v56c0.4,0.1,0.8,0.1,1.2,0.1c0.4,0,1,0,1.8,0c2.2,0,4.1-0.3,5.6-0.9c1.5-0.6,2.7-1.6,3.6-2.9
			c0.8-1.1,1.3-3.1,1.6-6.2c0.3-3.1,0.4-9.1,0.4-18.1v-4c0-7.4-0.1-12.3-0.4-14.9c-0.3-2.6-0.8-4.4-1.5-5.3c-0.8-1.3-2-2.2-3.5-2.8
			c-1.6-0.6-3.5-0.9-6-0.9c-0.7,0-1.3,0-1.7,0C126.8,69.6,126.4,69.6,126.1,69.7z"/>
	</g>
</g>
</svg>
