<?xml version="1.0" encoding="utf-8"?>
<!-- Generator: Adobe Illustrator 22.0.0, SVG Export Plug-In . SVG Version: 6.00 Build 0)  -->
<svg version="1.1" id="Layer_1" xmlns="http://www.w3.org/2000/svg" xmlns:xlink="http://www.w3.org/1999/xlink" x="0px" y="0px"
	 viewBox="0 0 256 256" style="enable-background:new 0 0 256 256;" xml:space="preserve">
<style type="text/css">
	.st0{stroke:#FFFFFF;stroke-miterlimit:10;}
	.st1{fill:#FFFFFF;stroke:#FFFFFF;stroke-miterlimit:10;}
	.st2{enable-background:new    ;}
	.st3{fill:#FFFFFF;}
</style>
<g id="Layer_2_1_">
	<g id="Layer_5">
		<rect x="-47.9" y="-36.9" class="st0" width="352.5" height="328.5"/>
	</g>
	<path class="st1" d="M30.8,30.8L13.7,47v94c0,80.6,0.6,94.9,4.5,100.2l4.2,6.2h106.4h106.4l4.2-6.2c3.9-5.3,4.5-19.7,4.5-100.5v-94
		l-17.4-16l-17.1-16.3h-80.8h-81L30.8,30.8z M206.8,23.5c2.5,2.5,3.4,24.1,3.4,80v76.6l-6.2,1.4c-3.6,0.8-39.9,1.1-80.8,0.8
		l-74.4-0.8L48,103.2c-0.6-60.9,0.3-78.9,2.8-80.8C56.9,18.7,202.9,19.5,206.8,23.5z M31.1,210.1c-5.1,11.2-9.8,20.5-10.4,20.5
		c-0.8,0-1.4-39.9-1.4-88.4V54.1l9.3-10.4l9-10.4l1.4,78.3l1.4,78.3L31.1,210.1z M238.2,142.2c0,48.6-0.6,88.4-1.4,88.4
		c-0.6,0-5.3-9.3-10.4-20.5l-9.3-20.2l0.8-78.6l0.8-78.6l9.8,10.4l9.5,10.7v88.4H238.2z M219.4,212.1c5.6,12.9,10.4,24.7,10.4,26.7
		c0,2.2-26.9,3.1-101.1,3.1c-64,0-101.1-1.1-101.1-2.8c0-1.4,4.8-13.5,10.7-26.7l10.4-23.9h80l80,0.3L219.4,212.1z"/>
	<g class="st2">
		<path class="st3" d="M102.6,111.8h19v2.6c0,4.9,0.6,8.3,1.7,10.3c1.2,2,3.1,3,5.8,3c2.2,0,3.9-0.8,5.2-2.3s1.9-3.6,1.9-6.2
			c0-4.3-3.1-8.4-9.3-12.4c-1-0.7-1.8-1.2-2.3-1.6c-0.2-0.1-0.5-0.3-1-0.6c-8.3-5.6-13.5-9.8-15.5-12.7c-1.5-2.1-2.6-4.6-3.3-7.3
			c-0.8-2.7-1.2-5.6-1.2-8.8c0-7.8,2.2-13.8,6.7-18.2c4.5-4.4,10.7-6.6,18.5-6.6c8.6,0,15.1,2.2,19.6,6.5s6.8,10.6,6.8,18.8
			c0,0.3,0,0.8-0.1,1.4c0,0.6-0.1,1.1-0.1,1.4h-18.6v-1.1c0-3.9-0.6-6.8-1.8-8.8c-1.2-2-3-3-5.3-3c-2,0-3.5,0.7-4.7,2.1
			c-1.2,1.4-1.8,3.3-1.8,5.6c0,3.8,3.4,7.8,10.1,12c1.2,0.8,2.2,1.4,2.8,1.8c0.5,0.3,1.3,0.8,2.2,1.4c7.3,4.6,11.9,8.5,13.9,11.6
			c1.3,2,2.2,4.3,2.9,6.9c0.7,2.6,1,5.4,1,8.4c0,8.9-2.3,15.7-6.9,20.5c-4.6,4.8-11.2,7.2-19.7,7.2c-9,0-15.7-2.3-20.2-6.9
			c-4.5-4.6-6.8-11.4-6.8-20.5c0-0.6,0-1.2,0-1.8C102.4,114.1,102.4,113.1,102.6,111.8z"/>
	</g>
</g>
</svg>
