<?xml version="1.0" encoding="utf-8"?>
<!-- Generator: Adobe Illustrator 22.0.0, SVG Export Plug-In . SVG Version: 6.00 Build 0)  -->
<svg version="1.1" id="Layer_1" xmlns="http://www.w3.org/2000/svg" xmlns:xlink="http://www.w3.org/1999/xlink" x="0px" y="0px"
	 viewBox="0 0 512 256" style="enable-background:new 0 0 512 256;" xml:space="preserve">
<style type="text/css">
	.st0{stroke:#000000;stroke-miterlimit:10;}
	.st1{fill:#FFFFFF;}
	.st2{enable-background:new    ;}
</style>
<g id="Layer_2">
	<rect x="-107" y="-87" class="st0" width="717" height="405"/>
</g>
<path class="st1" d="M21.8,32L5,48v92.3c0,79.1,0.6,93.1,4.4,98.4l4.1,6.1h242.2H498l4.1-6.1c3.9-5.2,4.4-19.3,4.4-98.7V47.7
	L489.5,32l-16.8-16H255.5H38.4L21.8,32z M470.2,24.8c2.5,2.5,3.3,23.7,3.3,78.5v75.2l-6.1,1.4c-3.6,0.8-176.9,1.1-217.1,0.8
	L39.5,180l-0.8-76.9c-0.6-59.8,0.3-77.4,2.8-79.4C47.5,20.1,466.3,21,470.2,24.8z M22.1,208.1c-5,11-9.6,20.1-10.2,20.1
	c-0.8,0-1.4-39.1-1.4-86.8V54.9l9.1-10.2l8.8-10.2l1.4,76.9l1.4,76.9L22.1,208.1z M501.1,141.4c0,47.7-0.6,86.8-1.4,86.8
	c-0.6,0-5.2-9.1-10.2-20.1l-9.1-19.8l0.8-77.2l0.8-77.2l9.6,10.2l9.4,10.5L501.1,141.4L501.1,141.4z M482.6,210
	c5.5,12.7,10.2,24.2,10.2,26.2c0,2.2-164.2,3-237,3c-62.8,0-237-1.1-237-2.8c0-1.4,4.7-13.2,10.5-26.2l10.2-23.4h216.3l216.3,0.3
	L482.6,210z"/>
<g class="st2">
	<path class="st1" d="M89.4,111.5H108v2.5c0,4.8,0.6,8.2,1.7,10.1c1.1,2,3,2.9,5.7,2.9c2.1,0,3.8-0.7,5.1-2.2
		c1.2-1.5,1.9-3.5,1.9-6.1c0-4.2-3-8.3-9.1-12.2c-1-0.7-1.7-1.2-2.3-1.5c-0.2-0.1-0.5-0.3-1-0.6c-8.2-5.5-13.3-9.6-15.3-12.4
		c-1.4-2.1-2.5-4.5-3.3-7.1c-0.8-2.6-1.1-5.5-1.1-8.6c0-7.6,2.2-13.6,6.6-17.9c4.4-4.3,10.5-6.5,18.2-6.5c8.4,0,14.8,2.1,19.2,6.4
		c4.4,4.3,6.6,10.4,6.6,18.5c0,0.3,0,0.8-0.1,1.4c0,0.6-0.1,1.1-0.1,1.4h-18.3v-1.1c0-3.8-0.6-6.7-1.8-8.6c-1.2-2-2.9-2.9-5.2-2.9
		c-1.9,0-3.5,0.7-4.6,2.1c-1.2,1.4-1.8,3.2-1.8,5.5c0,3.7,3.3,7.6,9.9,11.8c1.2,0.8,2.1,1.4,2.8,1.8c0.5,0.3,1.3,0.8,2.2,1.4
		c7.1,4.5,11.7,8.3,13.7,11.4c1.2,2,2.2,4.3,2.9,6.8c0.7,2.5,1,5.3,1,8.3c0,8.7-2.3,15.4-6.8,20.1s-11,7.1-19.4,7.1
		c-8.8,0-15.4-2.3-19.9-6.8c-4.4-4.5-6.6-11.2-6.6-20.1c0-0.6,0-1.2,0-1.8C89.2,113.8,89.2,112.9,89.4,111.5z"/>
	<path class="st1" d="M151.5,141V54h18.2v28.6c1.5-2.7,3.5-4.8,6-6.2c2.4-1.4,5.3-2.1,8.7-2.1c5,0,8.7,1.7,11.1,5.1
		c2.3,3.4,3.5,8.7,3.5,16V141h-18.1v-40.4c0-5.2-0.3-8.5-1-9.8c-0.7-1.3-1.9-1.9-3.6-1.9c-2,0-3.6,1-4.8,3c-1.1,2-1.7,4.7-1.7,8.3
		V141H151.5z"/>
	<path class="st1" d="M210.3,69.1V53.3h18.1v15.8H210.3z M210.3,141V75.6h18.1V141H210.3z"/>
	<path class="st1" d="M244,141V89.5h-7.4V75.6h7.4c0-0.4,0-1-0.1-1.7c0-0.7-0.1-1.2-0.1-1.5c0-6.9,1.5-11.7,4.4-14.5
		c2.9-2.8,7.9-4.2,14.9-4.2c1.1,0,2.2,0,3.3,0.1c1.1,0.1,2.3,0.1,3.6,0.3v13.2c-0.3,0-0.5-0.1-0.8-0.1c-0.3,0-0.7,0-1.3,0
		c-2.1,0-3.6,0.5-4.5,1.5c-0.9,1-1.3,2.6-1.3,4.9c0,0.6,0,1,0,1.3c0,0.3,0.1,0.6,0.1,0.9h7.9v13.9h-7.9V141H244z"/>
	<path class="st1" d="M310.4,140.8c-2.2,0.4-4.2,0.7-5.8,0.9c-1.7,0.2-3.1,0.3-4.2,0.3c-3.6,0-6.7-0.6-9.2-1.8
		c-2.5-1.2-4.4-2.8-5.6-5c-0.8-1.5-1.3-3.4-1.7-5.7s-0.5-5.8-0.5-10.4V111V89.1h-7.1V75.6h7.1V57.5h18.4v18.1h8.7v13.5h-8.7v26.7
		c0,5.7,0.4,9.2,1.2,10.5c0.8,1.3,2.4,2,4.8,2c0.4,0,1.1-0.1,2-0.2c0.3,0,0.5-0.1,0.6-0.1V140.8z"/>
</g>
</svg>
