<?xml version="1.0" encoding="utf-8"?>
<!-- Generator: Adobe Illustrator 22.0.0, SVG Export Plug-In . SVG Version: 6.00 Build 0)  -->
<svg version="1.1" id="Layer_1" xmlns="http://www.w3.org/2000/svg" xmlns:xlink="http://www.w3.org/1999/xlink" x="0px" y="0px"
	 viewBox="0 0 256 256" style="enable-background:new 0 0 256 256;" xml:space="preserve">
<style type="text/css">
	.st0{stroke:#FFFFFF;stroke-miterlimit:10;}
	.st1{fill:#FFFFFF;stroke:#FFFFFF;stroke-miterlimit:10;}
	.st2{enable-background:new    ;}
	.st3{fill:#FFFFFF;}
</style>
<g id="Layer_2_1_">
	<g id="Layer_5">
		<rect x="-46.9" y="-36.9" class="st0" width="352.5" height="328.5"/>
	</g>
	<path class="st1" d="M31.8,30.8L14.7,47v94c0,80.6,0.6,94.9,4.5,100.2l4.2,6.2h106.4h106.4l4.2-6.2c3.9-5.3,4.5-19.7,4.5-100.5v-94
		l-17.4-16l-17.1-16.3h-80.8h-81L31.8,30.8z M207.8,23.5c2.5,2.5,3.4,24.1,3.4,80v76.6l-6.2,1.4c-3.6,0.8-39.9,1.1-80.8,0.8
		l-74.4-0.8L49,103.2c-0.6-60.9,0.3-78.9,2.8-80.8C57.9,18.7,203.9,19.5,207.8,23.5z M32.1,210.1c-5.1,11.2-9.8,20.5-10.4,20.5
		c-0.8,0-1.4-39.9-1.4-88.4V54.1l9.3-10.4l9-10.4l1.4,78.3l1.4,78.3L32.1,210.1z M239.2,142.2c0,48.6-0.6,88.4-1.4,88.4
		c-0.6,0-5.3-9.3-10.4-20.5l-9.3-20.2l0.8-78.6l0.8-78.6l9.8,10.4l9.5,10.7v88.4H239.2z M220.4,212.1c5.6,12.9,10.4,24.7,10.4,26.7
		c0,2.2-26.9,3.1-101.1,3.1c-64,0-101.1-1.1-101.1-2.8c0-1.4,4.8-13.5,10.7-26.7l10.4-23.9h80l80,0.3L220.4,212.1z"/>
	<g class="st2">
		<path class="st3" d="M101.6,141.8L84,53.2h20.8l4.7,43.1c0.5,4.7,1,8.7,1.3,11.9c0.3,3.2,0.6,6,0.7,8.5c0.3-3.7,0.6-7.2,0.9-10.6
			c0.4-3.4,0.8-6.7,1.3-9.8l6.6-43h20.8l6.4,42.9c0.3,1.7,0.7,5.7,1.4,12c0.4,3.6,0.8,6.5,1,8.6c0.4-5.3,0.8-9.5,1.1-12.5
			c0.3-3,0.5-5.6,0.8-7.6l4.7-43.4h20.9L160,141.8h-22.4l-4.8-36.7c-0.4-3.2-0.8-6.6-1.1-10.2c-0.3-3.5-0.6-7.2-0.9-11
			c-0.3,4.4-0.6,8.3-0.9,11.7c-0.3,3.4-0.7,6.6-1.1,9.6l-4.6,36.6H101.6z"/>
	</g>
</g>
</svg>
